<svg xmlns="http://www.w3.org/2000/svg" viewBox="0 0 64 64" width="64" height="64"><rect x="1" y="1" width="62" height="62" rx="15" fill="#f8f5f1" stroke="#d4c0ea" stroke-width="2"/><path d="M9,37 C13,59 51,59 55,37" fill="none" stroke="#4e6a5a" stroke-width="2.8" stroke-linecap="round"/><ellipse cx="13.81" cy="40.28" rx="6.2" ry="3.9" transform="rotate(-26 13.81 40.28)" fill="#8faf8a"/><ellipse cx="15.93" cy="52.76" rx="6.2" ry="3.9" transform="rotate(121.7 15.93 52.76)" fill="#8faf8a"/><ellipse cx="44.29" cy="46.64" rx="6.2" ry="3.9" transform="rotate(-121.7 44.29 46.64)" fill="#8faf8a"/><ellipse cx="56.66" cy="43.43" rx="6.2" ry="3.9" transform="rotate(26 56.66 43.43)" fill="#8faf8a"/><path d="M32 47 C18 37 12 29.5 12 22.5 C12 16.5 16.5 12.5 22 12.5 C26.3 12.5 29.8 15 32 18.8 C34.2 15 37.7 12.5 42 12.5 C47.5 12.5 52 16.5 52 22.5 C52 29.5 46 37 32 47 Z" transform="translate(32 25) scale(1.1) translate(-32 -28)" fill="#927aac" stroke="#f8f5f1" stroke-width="2.2" stroke-linejoin="round" paint-order="stroke"/></svg>
