<svg xmlns="http://www.w3.org/2000/svg" viewBox="0 0 64 64" width="64" height="64"><style>:root{--tile:#f8f5f1;--edge:#d4c0ea;--heart:#927aac;--stem:#4e6a5a;--leaf:#8faf8a}@media (prefers-color-scheme:dark){:root{--tile:#38384d;--edge:#586c64;--heart:#d4c0ea;--stem:#bcc7b5;--leaf:#8faf8a}}</style><rect x="1" y="1" width="62" height="62" rx="15" fill="var(--tile)" stroke="var(--edge)" stroke-width="2"/><path d="M9,37 C13,59 51,59 55,37" fill="none" stroke="var(--stem)" stroke-width="2.8" stroke-linecap="round"/><ellipse cx="13.81" cy="40.28" rx="6.2" ry="3.9" transform="rotate(-26 13.81 40.28)" fill="var(--leaf)"/><ellipse cx="15.93" cy="52.76" rx="6.2" ry="3.9" transform="rotate(121.7 15.93 52.76)" fill="var(--leaf)"/><ellipse cx="44.29" cy="46.64" rx="6.2" ry="3.9" transform="rotate(-121.7 44.29 46.64)" fill="var(--leaf)"/><ellipse cx="56.66" cy="43.43" rx="6.2" ry="3.9" transform="rotate(26 56.66 43.43)" fill="var(--leaf)"/><path d="M32 47 C18 37 12 29.5 12 22.5 C12 16.5 16.5 12.5 22 12.5 C26.3 12.5 29.8 15 32 18.8 C34.2 15 37.7 12.5 42 12.5 C47.5 12.5 52 16.5 52 22.5 C52 29.5 46 37 32 47 Z" transform="translate(32 25) scale(1.1) translate(-32 -28)" fill="var(--heart)" stroke="var(--tile)" stroke-width="2.2" stroke-linejoin="round" paint-order="stroke"/></svg>
